# xmcd
#
# Track frame offsets:
# 150
# 33768
# 68654
# 107061
# 151016
#
# Disc length: 2715 seconds
#
#
# Revision: 0
# Processed by: cddbd v1.5.2PL0 Copyright (c) Steve Scherf et al.
# Submitted via: FreeRIP 2.95 
#
DISCID=2e0a9905
DTITLE=Kadri Gopalnath - Sax Thrills
DYEAR=1995
DGENRE=Fusion
TTITLE0=Heavenly Encounter
TTITLE1=Flowing Symphony
TTITLE2=Mellow Melody
TTITLE3=Sax Thrills
TTITLE4=Hidden Secrets
EXTD=
EXTT0=
EXTT1=
EXTT2=
EXTT3=
EXTT4=
PLAYORDER=
